<mxfile host="app.diagrams.net" agent="Mozilla/5.0 (Macintosh; Intel Mac OS X 10_15_7) AppleWebKit/537.36 (KHTML, like Gecko) Chrome/129.0.0.0 Safari/537.36" version="24.8.0">
  <diagram name="페이지-1" id="f33PpbZuvbOexSpvJJci">
    <mxGraphModel dx="837" dy="1180" grid="1" gridSize="10" guides="1" tooltips="1" connect="1" arrows="1" fold="1" page="1" pageScale="1" pageWidth="827" pageHeight="1169" math="0" shadow="0">
      <root>
        <mxCell id="0" />
        <mxCell id="1" parent="0" />
        <mxCell id="HJ9hrFxWSLjOT9jZArcn-1" value="문제 파악" style="shape=step;perimeter=stepPerimeter;whiteSpace=wrap;html=1;fixedSize=1;fontSize=17;" vertex="1" parent="1">
          <mxGeometry x="40" y="200.06" width="160" height="80" as="geometry" />
        </mxCell>
        <mxCell id="HJ9hrFxWSLjOT9jZArcn-8" style="edgeStyle=orthogonalEdgeStyle;rounded=0;orthogonalLoop=1;jettySize=auto;html=1;exitX=0.5;exitY=1;exitDx=0;exitDy=0;entryX=0.5;entryY=0;entryDx=0;entryDy=0;strokeColor=default;curved=0;endArrow=none;endFill=0;dashed=1;" edge="1" parent="1" source="HJ9hrFxWSLjOT9jZArcn-2" target="HJ9hrFxWSLjOT9jZArcn-7">
          <mxGeometry relative="1" as="geometry" />
        </mxCell>
        <mxCell id="HJ9hrFxWSLjOT9jZArcn-2" value="알고리즘 작성&lt;div style=&quot;font-size: 17px;&quot;&gt;(프로그래밍)&lt;/div&gt;" style="shape=step;perimeter=stepPerimeter;whiteSpace=wrap;html=1;fixedSize=1;fontSize=17;fillColor=#ffe6cc;strokeColor=#d79b00;fillStyle=hatch;" vertex="1" parent="1">
          <mxGeometry x="200" y="200.06" width="160" height="80" as="geometry" />
        </mxCell>
        <mxCell id="HJ9hrFxWSLjOT9jZArcn-5" style="edgeStyle=orthogonalEdgeStyle;rounded=0;orthogonalLoop=1;jettySize=auto;html=1;exitX=0.5;exitY=0;exitDx=0;exitDy=0;entryX=0.5;entryY=0;entryDx=0;entryDy=0;strokeWidth=2;" edge="1" parent="1" source="HJ9hrFxWSLjOT9jZArcn-4" target="HJ9hrFxWSLjOT9jZArcn-1">
          <mxGeometry relative="1" as="geometry">
            <Array as="points">
              <mxPoint x="600" y="160" />
              <mxPoint x="120" y="160" />
            </Array>
          </mxGeometry>
        </mxCell>
        <mxCell id="HJ9hrFxWSLjOT9jZArcn-3" value="&lt;div&gt;답을&amp;nbsp;&lt;span style=&quot;background-color: initial;&quot;&gt;도출&lt;/span&gt;&lt;/div&gt;" style="shape=step;perimeter=stepPerimeter;whiteSpace=wrap;html=1;fixedSize=1;fontSize=17;fillColor=#f8cecc;strokeColor=#b85450;fillStyle=hatch;" vertex="1" parent="1">
          <mxGeometry x="360" y="200.06" width="160" height="80" as="geometry" />
        </mxCell>
        <mxCell id="HJ9hrFxWSLjOT9jZArcn-4" value="&lt;div&gt;성능평가,&lt;/div&gt;배포" style="shape=step;perimeter=stepPerimeter;whiteSpace=wrap;html=1;fixedSize=1;fontSize=17;" vertex="1" parent="1">
          <mxGeometry x="520" y="200.06" width="160" height="80" as="geometry" />
        </mxCell>
        <mxCell id="HJ9hrFxWSLjOT9jZArcn-6" value="오류 분석" style="text;strokeColor=none;align=center;fillColor=none;html=1;verticalAlign=middle;whiteSpace=wrap;rounded=0;fontSize=15;" vertex="1" parent="1">
          <mxGeometry x="600" y="160" width="60" height="30" as="geometry" />
        </mxCell>
        <mxCell id="HJ9hrFxWSLjOT9jZArcn-7" value="- 도메인에 대한 높은 이해 필요&lt;div&gt;- 컴퓨터가 처리하도록 모두 알고리즘화 필요&lt;/div&gt;" style="text;strokeColor=none;align=center;fillColor=none;html=1;verticalAlign=middle;whiteSpace=wrap;rounded=0;fontSize=15;" vertex="1" parent="1">
          <mxGeometry x="137.5" y="310" width="285" height="30" as="geometry" />
        </mxCell>
        <mxCell id="HJ9hrFxWSLjOT9jZArcn-9" value="문제 파악" style="shape=step;perimeter=stepPerimeter;whiteSpace=wrap;html=1;fixedSize=1;fontSize=17;" vertex="1" parent="1">
          <mxGeometry x="40" y="560.06" width="160" height="80" as="geometry" />
        </mxCell>
        <mxCell id="HJ9hrFxWSLjOT9jZArcn-10" style="edgeStyle=orthogonalEdgeStyle;rounded=0;orthogonalLoop=1;jettySize=auto;html=1;exitX=0.5;exitY=1;exitDx=0;exitDy=0;entryX=0.5;entryY=0;entryDx=0;entryDy=0;strokeColor=default;curved=0;endArrow=none;endFill=0;dashed=1;" edge="1" parent="1" source="HJ9hrFxWSLjOT9jZArcn-11" target="HJ9hrFxWSLjOT9jZArcn-16">
          <mxGeometry relative="1" as="geometry" />
        </mxCell>
        <mxCell id="HJ9hrFxWSLjOT9jZArcn-11" value="머신러닝&lt;div&gt;(학습 알고리즘)&lt;/div&gt;" style="shape=step;perimeter=stepPerimeter;whiteSpace=wrap;html=1;fixedSize=1;fontSize=17;fillColor=#ffe6cc;strokeColor=#d79b00;fillStyle=hatch;" vertex="1" parent="1">
          <mxGeometry x="200" y="560.06" width="160" height="80" as="geometry" />
        </mxCell>
        <mxCell id="HJ9hrFxWSLjOT9jZArcn-12" style="edgeStyle=orthogonalEdgeStyle;rounded=0;orthogonalLoop=1;jettySize=auto;html=1;exitX=0.5;exitY=0;exitDx=0;exitDy=0;entryX=0.5;entryY=0;entryDx=0;entryDy=0;strokeWidth=2;" edge="1" parent="1" source="HJ9hrFxWSLjOT9jZArcn-14" target="HJ9hrFxWSLjOT9jZArcn-9">
          <mxGeometry relative="1" as="geometry">
            <Array as="points">
              <mxPoint x="600" y="520" />
              <mxPoint x="120" y="520" />
            </Array>
          </mxGeometry>
        </mxCell>
        <mxCell id="HJ9hrFxWSLjOT9jZArcn-13" value="일반화 규칙(패턴),&lt;div&gt;새로운 지식 학습&lt;/div&gt;" style="shape=step;perimeter=stepPerimeter;whiteSpace=wrap;html=1;fixedSize=1;fontSize=17;fillColor=#f8cecc;strokeColor=#b85450;fillStyle=hatch;" vertex="1" parent="1">
          <mxGeometry x="360" y="560.06" width="160" height="80" as="geometry" />
        </mxCell>
        <mxCell id="HJ9hrFxWSLjOT9jZArcn-14" value="&lt;div&gt;성능평가,&lt;/div&gt;배포" style="shape=step;perimeter=stepPerimeter;whiteSpace=wrap;html=1;fixedSize=1;fontSize=17;" vertex="1" parent="1">
          <mxGeometry x="520" y="560.06" width="160" height="80" as="geometry" />
        </mxCell>
        <mxCell id="HJ9hrFxWSLjOT9jZArcn-15" value="오류 분석" style="text;strokeColor=none;align=center;fillColor=none;html=1;verticalAlign=middle;whiteSpace=wrap;rounded=0;fontSize=15;" vertex="1" parent="1">
          <mxGeometry x="600" y="520" width="60" height="30" as="geometry" />
        </mxCell>
        <mxCell id="HJ9hrFxWSLjOT9jZArcn-16" value="- 충분한 데이터 덩어리가 투입된&lt;div&gt;- 기계는 이로부터 데이터 처리에 필요한 지식을 습득 (학습)&lt;/div&gt;" style="text;strokeColor=none;align=center;fillColor=none;html=1;verticalAlign=middle;whiteSpace=wrap;rounded=0;fontSize=15;" vertex="1" parent="1">
          <mxGeometry x="93.75" y="670" width="372.5" height="30" as="geometry" />
        </mxCell>
        <mxCell id="HJ9hrFxWSLjOT9jZArcn-17" value="&lt;font style=&quot;font-size: 24px;&quot;&gt;사람이 직접 모델 제작&lt;/font&gt;" style="text;strokeColor=#d6b656;align=center;fillColor=#fff2cc;html=1;verticalAlign=middle;whiteSpace=wrap;rounded=0;fontSize=15;" vertex="1" parent="1">
          <mxGeometry x="260" y="90" width="230" height="30" as="geometry" />
        </mxCell>
        <mxCell id="HJ9hrFxWSLjOT9jZArcn-18" value="&lt;font style=&quot;font-size: 24px;&quot;&gt;머신러닝&lt;/font&gt;" style="text;strokeColor=#d6b656;align=center;fillColor=#fff2cc;html=1;verticalAlign=middle;whiteSpace=wrap;rounded=0;fontSize=15;" vertex="1" parent="1">
          <mxGeometry x="269" y="450" width="230" height="30" as="geometry" />
        </mxCell>
      </root>
    </mxGraphModel>
  </diagram>
</mxfile>
